<?xml version="1.0" encoding="UTF-8"?>
<!DOCTYPE svg PUBLIC "-//W3C//DTD SVG 1.1//EN" "http://www.w3.org/Graphics/SVG/1.1/DTD/svg11.dtd">
<!-- Creator: CorelDRAW -->
<svg xmlns="http://www.w3.org/2000/svg" xml:space="preserve" width="6.82666in" height="6.82666in" style="shape-rendering:geometricPrecision; text-rendering:geometricPrecision; image-rendering:optimizeQuality; fill-rule:evenodd; clip-rule:evenodd"
viewBox="0 0 6.82666 6.82666"
 xmlns:xlink="http://www.w3.org/1999/xlink">
 <defs>
  <style type="text/css">
   <![CDATA[
    .fil4 {fill:none}
    .fil3 {fill:#4B4B4B}
    .fil2 {fill:#6A6A6A}
    .fil1 {fill:#BCBCBC}
    .fil0 {fill:#2F2F2F;fill-rule:nonzero}
   ]]>
  </style>
 </defs>
 <g id="Layer_x0020_1">
  <metadata id="CorelCorpID_0Corel-Layer"/>
  <g id="_518139224">
   <g>
    <path id="_521774488" class="fil0" d="M5.01949 4.51418c0.110276,0 0.21013,0.0447087 0.282409,0.116988 0.0722835,0.0722835 0.116992,0.172134 0.116992,0.282409 0,0.110283 -0.0447087,0.210134 -0.116992,0.282409 -0.0722756,0.0722835 -0.172134,0.116992 -0.282409,0.116992 -0.110276,0 -0.210126,-0.0447087 -0.282409,-0.116992 -0.0722795,-0.0722795 -0.116988,-0.172134 -0.116988,-0.282409 0,-0.110276 0.0447087,-0.210126 0.116988,-0.282406 0.0722835,-0.0722835 0.172134,-0.116992 0.282409,-0.116992zm0.131575 0.267823c-0.0336614,-0.0336614 -0.080185,-0.0544843 -0.131575,-0.0544843 -0.0513898,0 -0.0979094,0.0208228 -0.131575,0.0544882 -0.0336614,0.0336614 -0.0544843,0.0801811 -0.0544843,0.131571 0,0.0513898 0.0208228,0.0979134 0.0544843,0.131575 0.0336654,0.0336654 0.080185,0.0544882 0.131575,0.0544882 0.0513898,0 0.0979134,-0.0208268 0.131575,-0.0544882 0.0336614,-0.0336614 0.0544882,-0.0801811 0.0544882,-0.131575 0,-0.0513898 -0.0208228,-0.0979094 -0.0544882,-0.131575z"/>
    <path id="_521774512" class="fil1" d="M5.15106 4.782c-0.0336614,-0.0336614 -0.080185,-0.0544843 -0.131575,-0.0544843 -0.0513898,0 -0.0979094,0.0208228 -0.131575,0.0544882 -0.0336614,0.0336614 -0.0544843,0.0801811 -0.0544843,0.131571 0,0.0513898 0.0208228,0.0979134 0.0544843,0.131575 0.0336654,0.0336654 0.080185,0.0544882 0.131575,0.0544882 0.0513898,0 0.0979134,-0.0208268 0.131575,-0.0544882 0.0336614,-0.0336614 0.0544882,-0.0801811 0.0544882,-0.131575 0,-0.0513898 -0.0208228,-0.0979094 -0.0544882,-0.131575z"/>
   </g>
   <polygon id="_518140064" class="fil0" points="0.885843,1.51369 1.4713,1.51369 1.553,1.51369 1.57422,1.59286 2.26067,4.15474 5.21719,4.15474 5.14478,4.36807 2.17897,4.36807 2.09727,4.36807 2.07605,4.28891 1.38959,1.72703 0.885843,1.72703 "/>
   <polygon id="_518140712" class="fil2" points="1.60805,2.02401 5.79211,2.02401 5.94082,2.02401 5.89295,2.16485 5.32016,3.85 5.29551,3.92251 5.21932,3.92251 2.05958,3.92251 1.97788,3.92251 1.95667,3.84334 1.50513,2.15818 1.46918,2.02401 "/>
   <g>
    <path id="_518140424" class="fil0" d="M2.42267 4.51418c0.110276,0 0.21013,0.0447087 0.282409,0.116988 0.0722835,0.0722835 0.116992,0.172134 0.116992,0.282409 0,0.110283 -0.0447087,0.210134 -0.116992,0.282409 -0.0722756,0.0722835 -0.172134,0.116992 -0.282409,0.116992 -0.110276,0 -0.210126,-0.0447087 -0.282409,-0.116992 -0.0722795,-0.0722795 -0.116988,-0.172134 -0.116988,-0.282409 0,-0.110276 0.0447087,-0.210126 0.116988,-0.282406 0.0722835,-0.0722835 0.172134,-0.116992 0.282409,-0.116992zm0.131575 0.267823c-0.0336614,-0.0336614 -0.080185,-0.0544843 -0.131575,-0.0544843 -0.0513898,0 -0.0979094,0.0208228 -0.131575,0.0544882 -0.0336614,0.0336614 -0.0544843,0.0801811 -0.0544843,0.131571 0,0.0513898 0.0208228,0.0979134 0.0544843,0.131575 0.0336654,0.0336654 0.080185,0.0544882 0.131575,0.0544882 0.0513898,0 0.0979134,-0.0208268 0.131575,-0.0544882 0.0336614,-0.0336614 0.0544882,-0.0801811 0.0544882,-0.131575 0,-0.0513898 -0.0208228,-0.0979094 -0.0544882,-0.131575z"/>
    <path id="_518140616" class="fil1" d="M2.55425 4.782c-0.0336614,-0.0336614 -0.080185,-0.0544843 -0.131575,-0.0544843 -0.0513898,0 -0.0979094,0.0208228 -0.131575,0.0544882 -0.0336614,0.0336614 -0.0544843,0.0801811 -0.0544843,0.131571 0,0.0513898 0.0208228,0.0979134 0.0544843,0.131575 0.0336654,0.0336654 0.080185,0.0544882 0.131575,0.0544882 0.0513898,0 0.0979134,-0.0208268 0.131575,-0.0544882 0.0336614,-0.0336614 0.0544882,-0.0801811 0.0544882,-0.131575 0,-0.0513898 -0.0208228,-0.0979094 -0.0544882,-0.131575z"/>
   </g>
   <polygon id="_518140400" class="fil3" points="2.06055,2.45333 5.25918,2.45333 5.25918,2.4588 5.18708,2.66667 2.11836,2.66667 "/>
   <polygon id="_518139320" class="fil3" points="2.17668,2.8819 5.11243,2.8819 5.03844,3.09524 2.23449,3.09524 "/>
   <polygon id="_518139848" class="fil3" points="2.29178,3.30666 4.96511,3.30666 4.89111,3.52 2.34959,3.52 "/>
  </g>
  <rect class="fil4" width="6.82666" height="6.82666"/>
 </g>
</svg>
